<mxfile host="app.diagrams.net" modified="2023-09-28T13:36:34.471Z" agent="Mozilla/5.0 (Windows NT 10.0; Win64; x64) AppleWebKit/537.36 (KHTML, like Gecko) Chrome/117.0.0.0 Safari/537.36 Edg/117.0.2045.40" version="21.6.9" etag="P48-dcql5MIGNadcm3rr" type="github">
  <diagram name="Seite-1" id="5r65vuRkeiLdLsrQL4e6">
    <mxGraphModel>
      <root>
        <mxCell id="0" />
        <mxCell id="1" parent="0" />
      </root>
    </mxGraphModel>
  </diagram>
</mxfile>
